<svg width="122.879" height="119.799" xmlns="http://www.w3.org/2000/svg">

 <g>
  <title>background</title>
  <rect fill="none" id="canvas_background" height="602" width="802" y="-1" x="-1"/>
 </g>
 <g>
  <title>Layer 1</title>
  <g id="svg_1">
   <path fill="#ffffff" id="svg_2" d="m49.988,0l0.016,0l0,0.007c13.799,0.004 26.294,5.601 35.336,14.645c9.027,9.031 14.619,21.515 14.628,35.303l0.007,0l0,0.033l0,0.04l-0.007,0c-0.005,5.557 -0.917,10.905 -2.594,15.892c-0.281,0.837 -0.575,1.641 -0.877,2.409l0,0.007c-1.446,3.66 -3.315,7.12 -5.547,10.307l29.082,26.139l0.018,0.016l0.157,0.146l0.011,0.011c1.642,1.563 2.536,3.656 2.649,5.78c0.11,2.1 -0.543,4.248 -1.979,5.971l-0.011,0.016l-0.175,0.203l-0.035,0.035l-0.146,0.16l-0.016,0.021c-1.565,1.642 -3.654,2.534 -5.78,2.646c-2.097,0.111 -4.247,-0.54 -5.971,-1.978l-0.015,-0.011l-0.204,-0.175l-0.029,-0.024l-29.745,-26.734c-0.88,0.62 -1.778,1.209 -2.687,1.765c-1.233,0.755 -2.51,1.466 -3.813,2.115c-6.699,3.342 -14.269,5.222 -22.272,5.222l0,0.007l-0.016,0l0,-0.007c-13.799,-0.004 -26.296,-5.601 -35.338,-14.645c-9.03,-9.031 -14.619,-21.517 -14.628,-35.301l-0.007,0l0,-0.033l0,-0.016l0.007,0c0.004,-13.799 5.601,-26.296 14.645,-35.338c9.031,-9.026 21.515,-14.618 35.303,-14.627l0,-0.007l0.033,0l0,0zm0.016,11.21l0,0.007l-0.016,0l-0.033,0l0,-0.007c-10.686,0.007 -20.372,4.35 -27.384,11.359c-7.011,7.009 -11.358,16.705 -11.361,27.404l0.007,0l0,0.016l0,0.033l-0.007,0c0.007,10.686 4.347,20.367 11.359,27.381c7.009,7.012 16.705,11.359 27.403,11.361l0,-0.007l0.016,0l0.033,0l0,0.007c10.686,-0.007 20.368,-4.348 27.382,-11.359c7.011,-7.009 11.358,-16.702 11.36,-27.4l-0.006,0l0,-0.016l0,-0.033l0.006,0c-0.006,-10.686 -4.35,-20.372 -11.358,-27.384c-7.009,-7.012 -16.702,-11.359 -27.401,-11.362l0,0z"/>
  </g>
 </g>
</svg>