<svg id="Layer_1" enable-background="new 0 0 256 256" height="512" viewBox="0 0 256 256" width="512" xmlns="http://www.w3.org/2000/svg"><ellipse cx="137.844" cy="59.985" fill="#fcc24c" rx="44.615" ry="44.615" transform="matrix(.16 -.987 .987 .16 56.553 186.44)"/><path d="m161.651 240.63h-136.844c-10.066 0-18.225-8.16-18.225-18.225v-99.58c0-10.066 8.16-18.226 18.225-18.226h136.844c10.066 0 18.225 8.16 18.225 18.226v99.58c0 10.065-8.159 18.225-18.225 18.225z" fill="#f4efed"/><path d="m252 234.332-72.124-36.451v-50.533l72.124-36.451z" fill="#f4efed"/><path d="m161.651 104.599h-10.96c10.066 0 18.225 8.16 18.225 18.226v99.58c0 10.066-8.16 18.225-18.225 18.225h10.96c10.066 0 18.225-8.16 18.225-18.225v-99.58c0-10.066-8.159-18.226-18.225-18.226z" fill="#d6d1cf"/><path d="m24.807 240.63h10.96c-10.066 0-18.225-8.16-18.225-18.225v-99.58c0-10.066 8.16-18.226 18.225-18.226h-10.96c-10.066 0-18.225 8.16-18.225 18.226v99.58c0 10.065 8.159 18.225 18.225 18.225z" fill="#fff"/><ellipse cx="48.614" cy="59.985" fill="#fcc24c" rx="44.614" ry="44.615" transform="matrix(.997 -.083 .083 .997 -4.782 4.214)"/><path d="m137.844 15.37c-1.504 0-2.989.077-4.455.222 22.548 2.236 40.16 21.256 40.16 44.392s-17.612 42.157-40.16 44.392c1.465.145 2.951.222 4.455.222 24.64 0 44.615-19.974 44.615-44.614s-19.975-44.614-44.615-44.614z" fill="#dea42e"/><path d="m48.615 104.599c1.503 0 2.989-.077 4.455-.222-22.548-2.235-40.16-21.256-40.16-44.392s17.612-42.157 40.16-44.392c-1.465-.145-2.951-.222-4.455-.222-24.64-.001-44.615 19.974-44.615 44.614s19.975 44.614 44.615 44.614z" fill="#fce06a"/><path d="m64.025 59.985c0 8.511-6.9 15.411-15.411 15.411s-15.41-6.899-15.41-15.411c0-8.511 6.9-15.41 15.41-15.41 8.511-.001 15.411 6.899 15.411 15.41z" fill="#7bac51"/><circle cx="137.843" cy="59.985" fill="#7bac51" r="15.41"/><path d="m241.04 116.437v112.355l10.96 5.54v-123.435z" fill="#d6d1cf"/><g fill="#690589"><path d="m161.651 242.63h-136.844c-11.152 0-20.225-9.073-20.225-20.226v-99.58c0-11.152 9.072-20.226 20.225-20.226h136.845c11.152 0 20.226 9.073 20.226 20.226v99.58c-.001 11.153-9.074 20.226-20.227 20.226zm-136.844-136.031c-8.946 0-16.225 7.279-16.225 16.226v99.58c0 8.947 7.278 16.226 16.225 16.226h136.845c8.947 0 16.226-7.279 16.226-16.226v-99.58c0-8.947-7.278-16.226-16.226-16.226z"/><path d="m15.35 147.12c-1.104 0-2-.896-2-2v-12c0-1.104.896-2 2-2s2 .896 2 2v12c0 1.104-.896 2-2 2z"/><path d="m252 236.332c-.309 0-.618-.071-.902-.215l-72.123-36.451c-.673-.34-1.098-1.031-1.098-1.785v-50.533c0-.754.425-1.445 1.098-1.785l72.123-36.451c.619-.313 1.358-.282 1.95.082s.952 1.009.952 1.704v123.434c0 .695-.36 1.34-.952 1.704-.32.196-.684.296-1.048.296zm-70.123-39.681 68.123 34.429v-116.931l-68.123 34.429z"/><path d="m48.614 106.599c-25.703 0-46.614-20.911-46.614-46.614 0-25.704 20.911-46.615 46.614-46.615s46.614 20.911 46.614 46.615c.001 25.703-20.911 46.614-46.614 46.614zm0-89.229c-23.498 0-42.614 19.117-42.614 42.615s19.116 42.614 42.614 42.614 42.614-19.117 42.614-42.614c.001-23.498-19.116-42.615-42.614-42.615z"/><path d="m48.614 77.396c-9.6 0-17.41-7.811-17.41-17.411s7.811-17.411 17.41-17.411c9.601 0 17.411 7.811 17.411 17.411s-7.81 17.411-17.411 17.411zm0-30.822c-7.395 0-13.41 6.016-13.41 13.411s6.016 13.411 13.41 13.411 13.411-6.016 13.411-13.411-6.016-13.411-13.411-13.411z"/><path d="m137.844 77.396c-9.601 0-17.411-7.811-17.411-17.411s7.811-17.411 17.411-17.411 17.41 7.811 17.41 17.411-7.811 17.411-17.41 17.411zm0-30.822c-7.395 0-13.411 6.016-13.411 13.411s6.017 13.411 13.411 13.411 13.41-6.016 13.41-13.411-6.016-13.411-13.41-13.411z"/><path d="m137.844 106.599c-25.704 0-46.615-20.911-46.615-46.614 0-25.704 20.911-46.615 46.615-46.615 25.703 0 46.614 20.911 46.614 46.615 0 25.703-20.911 46.614-46.614 46.614zm0-89.229c-23.498 0-42.615 19.117-42.615 42.615s19.117 42.614 42.615 42.614 42.614-19.117 42.614-42.614c0-23.498-19.116-42.615-42.614-42.615z"/></g><circle cx="93.229" cy="172.615" fill="#ff4397" r="40.795"/><path d="m93.229 215.409c-23.597 0-42.794-19.198-42.794-42.795s19.197-42.794 42.794-42.794c23.598 0 42.795 19.198 42.795 42.794-.001 23.597-19.198 42.795-42.795 42.795zm0-81.589c-21.391 0-38.794 17.403-38.794 38.794 0 21.392 17.403 38.795 38.794 38.795 21.392 0 38.795-17.403 38.795-38.795-.001-21.391-17.404-38.794-38.795-38.794z" fill="#690589"/><path d="m108.806 156.208-11.941 16.216 11.941 16.341c1.069 1.509.817 3.708-.754 4.777-.628.44-1.319.691-2.011.691-1.132 0-2.138-.565-2.829-1.446l-10.559-14.519-10.622 14.519c-.692.88-1.696 1.446-2.765 1.446-.755 0-1.446-.251-2.012-.691-1.571-1.068-1.886-3.268-.817-4.777l11.942-16.341-11.942-16.216c-1.068-1.571-.754-3.708.817-4.776 1.509-1.194 3.708-.88 4.776.754l10.622 14.455 10.559-14.455c1.194-1.634 3.269-1.948 4.84-.754 1.572 1.067 1.824 3.204.755 4.776z" fill="#690589"/></svg>